<svg aria-hidden="true" style="width:0;height:0;position:absolute;overflow:hidden" xmlns="http://www.w3.org/2000/svg"><defs><symbol id="Icon" viewBox="0 0 32 32"><path fill="#fff" style="fill:var(--color1,#fff)" d="M13.411 26.073C6.418 26.073.75 20.404.75 13.412S6.419.751 13.411.751 26.072 6.42 26.072 13.412c-.008 6.989-5.672 12.654-12.661 12.661z"/><path fill="#fff" style="fill:var(--color2,#999)" d="M13.411 1.5c6.579 0 11.912 5.333 11.912 11.912S19.99 25.324 13.411 25.324 1.499 19.991 1.499 13.412C1.506 6.836 6.835 1.508 13.411 1.5zm0-1.499C6.004.001 0 6.005 0 13.411s6.004 13.411 13.41 13.411c7.407 0 13.411-6.004 13.411-13.41v-.001c0-7.406-6.004-13.41-13.41-13.411z"/><path style="fill:var(--color3,#000)" d="m24.132 21.387 7.23 7.058a2.062 2.062 0 1 1-2.851 2.983l-.041-.04-7.23-7.057z"/></symbol></defs></svg>