<svg aria-hidden="true" style="position: absolute; width: 0; height: 0; overflow: hidden;" version="1.1"
    xmlns="http://www.w3.org/2000/svg" xmlns:xlink="http://www.w3.org/1999/xlink">
    <defs>
        <symbol id="Icon" viewBox="0 0 32 32">
            <path fill="#fff" style="fill: var(--color1, #fff)"
                d="M13.411 26.073c-6.993 0-12.661-5.669-12.661-12.661s5.669-12.661 12.661-12.661 12.661 5.669 12.661 12.661c-0.008 6.989-5.672 12.654-12.661 12.661z">
            </path>
            <path fill="#fff" style=" fill: var(--color2, #999)"
                d="M13.411 1.5c6.579 0 11.912 5.333 11.912 11.912s-5.333 11.912-11.912 11.912-11.912-5.333-11.912-11.912c0.007-6.576 5.336-11.904 11.912-11.912zM13.411 0.001c-7.407-0-13.411 6.004-13.411 13.41s6.004 13.411 13.41 13.411c7.407 0 13.411-6.004 13.411-13.41v-0.001c0-7.406-6.004-13.41-13.41-13.411z">
            </path>
            <path fill="#000" style="fill: var(--color3, #000)"
                d="M24.132 21.387l7.23 7.058c0.824 0.787 0.854 2.093 0.066 2.917s-2.093 0.854-2.917 0.066c-0.014-0.013-0.027-0.026-0.041-0.040l-7.23-7.057z">
            </path>
        </symbol>
    </defs>
</svg>